# Blender v3.0.1 OBJ File: 'tree.blend'
# www.blender.org
mtllib tree.mtl
o Plane.001
v -0.200000 0.000000 -0.000000
v 0.000000 0.000000 -0.000000
v -0.200000 0.300000 0.000000
v 0.000000 0.300000 0.000000
v -1.000000 0.300000 0.000000
v 0.000000 0.300000 0.000000
v 0.000000 2.300000 -0.000000
v -0.193185 0.000000 0.051764
v -0.000000 0.000000 -0.000000
v -0.193185 0.300000 0.051764
v -0.965926 0.300000 0.258819
v 0.000000 0.300000 0.000000
v -0.000000 2.300000 -0.000000
v -0.173205 0.000000 0.100000
v -0.000000 0.000000 -0.000000
v -0.173205 0.300000 0.100000
v -0.866025 0.300000 0.500000
v 0.000000 0.300000 0.000000
v -0.000000 2.300000 -0.000000
v -0.141421 0.000000 0.141421
v -0.000000 0.000000 -0.000000
v -0.141421 0.300000 0.141421
v -0.707107 0.300000 0.707107
v 0.000000 0.300000 0.000000
v -0.000000 2.300000 -0.000000
v -0.100000 0.000000 0.173205
v -0.000000 0.000000 -0.000000
v -0.100000 0.300000 0.173205
v -0.500000 0.300000 0.866025
v 0.000000 0.300000 0.000000
v -0.000000 2.300000 -0.000000
v -0.051764 0.000000 0.193185
v -0.000000 0.000000 -0.000000
v -0.051764 0.300000 0.193185
v -0.258819 0.300000 0.965926
v 0.000000 0.300000 0.000000
v -0.000000 2.300000 -0.000000
v -0.000000 0.000000 0.200000
v -0.000000 0.000000 0.000000
v 0.000000 0.300000 0.200000
v 0.000000 0.300000 1.000000
v 0.000000 0.300000 -0.000000
v -0.000000 2.300000 0.000000
v 0.051764 0.000000 0.193185
v -0.000000 0.000000 0.000000
v 0.051764 0.300000 0.193185
v 0.258819 0.300000 0.965926
v 0.000000 0.300000 -0.000000
v -0.000000 2.300000 0.000000
v 0.100000 0.000000 0.173205
v -0.000000 0.000000 0.000000
v 0.100000 0.300000 0.173205
v 0.500000 0.300000 0.866025
v 0.000000 0.300000 -0.000000
v -0.000000 2.300000 0.000000
v 0.141421 0.000000 0.141421
v -0.000000 0.000000 0.000000
v 0.141421 0.300000 0.141421
v 0.707107 0.300000 0.707106
v 0.000000 0.300000 -0.000000
v -0.000000 2.300000 0.000000
v 0.173205 0.000000 0.100000
v -0.000000 0.000000 0.000000
v 0.173205 0.300000 0.100000
v 0.866025 0.300000 0.500000
v 0.000000 0.300000 -0.000000
v -0.000000 2.300000 0.000000
v 0.193185 0.000000 0.051764
v -0.000000 0.000000 0.000000
v 0.193185 0.300000 0.051764
v 0.965926 0.300000 0.258819
v 0.000000 0.300000 -0.000000
v -0.000000 2.300000 0.000000
v 0.200000 0.000000 0.000000
v -0.000000 0.000000 0.000000
v 0.200000 0.300000 -0.000000
v 1.000000 0.300000 -0.000000
v -0.000000 0.300000 -0.000000
v 0.000000 2.300000 0.000000
v 0.193185 0.000000 -0.051764
v 0.000000 0.000000 0.000000
v 0.193185 0.300000 -0.051764
v 0.965925 0.300000 -0.258819
v -0.000000 0.300000 -0.000000
v 0.000000 2.300000 0.000000
v 0.173205 0.000000 -0.100000
v 0.000000 0.000000 0.000000
v 0.173205 0.300000 -0.100000
v 0.866025 0.300000 -0.500000
v -0.000000 0.300000 -0.000000
v 0.000000 2.300000 0.000000
v 0.141421 0.000000 -0.141421
v 0.000000 0.000000 0.000000
v 0.141421 0.300000 -0.141421
v 0.707106 0.300000 -0.707107
v -0.000000 0.300000 -0.000000
v 0.000000 2.300000 0.000000
v 0.100000 0.000000 -0.173205
v 0.000000 0.000000 0.000000
v 0.100000 0.300000 -0.173205
v 0.500000 0.300000 -0.866025
v -0.000000 0.300000 -0.000000
v 0.000000 2.300000 0.000000
v 0.051764 0.000000 -0.193185
v 0.000000 0.000000 0.000000
v 0.051764 0.300000 -0.193185
v 0.258819 0.300000 -0.965925
v -0.000000 0.300000 -0.000000
v 0.000000 2.300000 0.000000
v 0.000000 0.000000 -0.200000
v 0.000000 0.000000 -0.000000
v -0.000000 0.300000 -0.200000
v -0.000000 0.300000 -1.000000
v -0.000000 0.300000 0.000000
v 0.000000 2.300000 0.000000
v -0.051764 0.000000 -0.193185
v 0.000000 0.000000 -0.000000
v -0.051764 0.300000 -0.193185
v -0.258819 0.300000 -0.965925
v -0.000000 0.300000 0.000000
v 0.000000 2.300000 -0.000000
v -0.100000 0.000000 -0.173205
v 0.000000 0.000000 -0.000000
v -0.100000 0.300000 -0.173205
v -0.500000 0.300000 -0.866025
v -0.000000 0.300000 0.000000
v 0.000000 2.300000 -0.000000
v -0.141421 0.000000 -0.141421
v 0.000000 0.000000 -0.000000
v -0.141421 0.300000 -0.141421
v -0.707107 0.300000 -0.707106
v -0.000000 0.300000 0.000000
v 0.000000 2.300000 -0.000000
v -0.173205 0.000000 -0.100000
v 0.000000 0.000000 -0.000000
v -0.173205 0.300000 -0.100000
v -0.866025 0.300000 -0.500000
v -0.000000 0.300000 0.000000
v 0.000000 2.300000 -0.000000
v -0.193185 0.000000 -0.051764
v 0.000000 0.000000 -0.000000
v -0.193185 0.300000 -0.051764
v -0.965925 0.300000 -0.258819
v -0.000000 0.300000 0.000000
v 0.000000 2.300000 -0.000000
vt 0.000000 0.000000
vt 1.000000 0.000000
vt 1.000000 1.000000
vt 0.000000 1.000000
vt 0.000000 0.000000
vt 0.000000 0.000000
vt 0.000000 0.000000
vt 0.000000 0.000000
vt 0.000000 0.000000
vt 0.000000 0.000000
vt 0.000000 0.000000
vt 1.000000 0.000000
vt 0.000000 1.000000
vt 0.000000 0.000000
vt 0.000000 0.000000
vt 0.000000 0.000000
vt 0.000000 1.000000
vt 0.000000 0.000000
vt 1.000000 0.000000
vt 0.000000 0.000000
vt 0.000000 0.000000
vt 0.000000 0.000000
vt 0.000000 1.000000
vt 0.000000 0.000000
vt 1.000000 0.000000
vt 0.000000 0.000000
vt 0.000000 0.000000
vt 0.000000 0.000000
vt 0.000000 1.000000
vt 0.000000 0.000000
vt 1.000000 0.000000
vt 0.000000 0.000000
vt 0.000000 0.000000
vt 0.000000 0.000000
vt 0.000000 1.000000
vt 0.000000 0.000000
vt 1.000000 0.000000
vt 0.000000 0.000000
vt 0.000000 0.000000
vt 0.000000 0.000000
vt 0.000000 1.000000
vt 0.000000 0.000000
vt 1.000000 0.000000
vt 0.000000 0.000000
vt 0.000000 0.000000
vt 0.000000 0.000000
vt 0.000000 1.000000
vt 0.000000 0.000000
vt 1.000000 0.000000
vt 0.000000 0.000000
vt 0.000000 0.000000
vt 0.000000 0.000000
vt 0.000000 1.000000
vt 0.000000 0.000000
vt 1.000000 0.000000
vt 0.000000 0.000000
vt 0.000000 0.000000
vt 0.000000 0.000000
vt 0.000000 1.000000
vt 0.000000 0.000000
vt 1.000000 0.000000
vt 0.000000 0.000000
vt 0.000000 0.000000
vt 0.000000 0.000000
vt 0.000000 1.000000
vt 0.000000 0.000000
vt 1.000000 0.000000
vt 0.000000 0.000000
vt 0.000000 0.000000
vt 0.000000 0.000000
vt 0.000000 1.000000
vt 0.000000 0.000000
vt 1.000000 0.000000
vt 0.000000 0.000000
vt 0.000000 0.000000
vt 0.000000 0.000000
vt 0.000000 1.000000
vt 0.000000 0.000000
vt 1.000000 0.000000
vt 0.000000 0.000000
vt 0.000000 0.000000
vt 0.000000 0.000000
vt 0.000000 1.000000
vt 0.000000 0.000000
vt 1.000000 0.000000
vt 0.000000 0.000000
vt 0.000000 0.000000
vt 0.000000 0.000000
vt 0.000000 1.000000
vt 0.000000 0.000000
vt 1.000000 0.000000
vt 0.000000 0.000000
vt 0.000000 0.000000
vt 0.000000 0.000000
vt 0.000000 1.000000
vt 0.000000 0.000000
vt 1.000000 0.000000
vt 0.000000 0.000000
vt 0.000000 0.000000
vt 0.000000 0.000000
vt 0.000000 1.000000
vt 0.000000 0.000000
vt 1.000000 0.000000
vt 0.000000 0.000000
vt 0.000000 0.000000
vt 0.000000 0.000000
vt 0.000000 1.000000
vt 0.000000 0.000000
vt 1.000000 0.000000
vt 0.000000 0.000000
vt 0.000000 0.000000
vt 0.000000 0.000000
vt 0.000000 1.000000
vt 0.000000 0.000000
vt 1.000000 0.000000
vt 0.000000 0.000000
vt 0.000000 0.000000
vt 0.000000 0.000000
vt 0.000000 1.000000
vt 0.000000 0.000000
vt 1.000000 0.000000
vt 0.000000 0.000000
vt 0.000000 0.000000
vt 0.000000 0.000000
vt 0.000000 1.000000
vt 0.000000 0.000000
vt 1.000000 0.000000
vt 0.000000 0.000000
vt 0.000000 0.000000
vt 0.000000 0.000000
vt 0.000000 1.000000
vt 0.000000 0.000000
vt 1.000000 0.000000
vt 0.000000 0.000000
vt 0.000000 0.000000
vt 0.000000 0.000000
vt 0.000000 1.000000
vt 0.000000 0.000000
vt 1.000000 0.000000
vt 0.000000 0.000000
vt 0.000000 0.000000
vt 0.000000 0.000000
vt 0.000000 1.000000
vt 0.000000 0.000000
vt 1.000000 0.000000
vn 0.0000 -0.0000 1.0000
vn 0.2588 0.0000 0.9659
vn 0.0000 1.0000 0.0000
vn -0.8944 -0.0000 -0.4472
vn 0.8883 -0.4441 -0.1169
vn 0.9914 0.0000 -0.1305
vn 0.5000 0.0000 0.8660
vn 0.8278 -0.4441 -0.3429
vn 0.9239 0.0000 -0.3827
vn 0.7071 0.0000 0.7071
vn 0.7108 -0.4441 -0.5454
vn 0.7934 0.0000 -0.6088
vn 0.8660 0.0000 0.5000
vn 0.5454 -0.4441 -0.7108
vn 0.6088 0.0000 -0.7934
vn -0.2425 -0.0000 0.9701
vn 0.9659 0.0000 0.2588
vn 0.3429 -0.4441 -0.8278
vn 0.3827 0.0000 -0.9239
vn 1.0000 0.0000 0.0000
vn 0.1169 -0.4441 -0.8883
vn 0.1305 0.0000 -0.9914
vn -0.0624 -0.0000 -0.9981
vn 0.9659 0.0000 -0.2588
vn -0.1169 -0.4441 -0.8883
vn -0.1305 0.0000 -0.9914
vn -0.0624 -0.0000 0.9981
vn 0.8660 0.0000 -0.5000
vn -0.3429 -0.4441 -0.8278
vn -0.3827 0.0000 -0.9239
vn 0.0624 0.0000 -0.9981
vn 0.7071 0.0000 -0.7071
vn -0.5454 -0.4441 -0.7108
vn -0.6088 0.0000 -0.7934
vn 0.5000 0.0000 -0.8660
vn -0.7108 -0.4441 -0.5454
vn -0.7934 0.0000 -0.6088
vn -0.8321 -0.0000 -0.5547
vn 0.2588 0.0000 -0.9659
vn -0.8278 -0.4441 -0.3429
vn -0.9239 0.0000 -0.3827
vn -0.0000 0.0000 -1.0000
vn -0.8883 -0.4441 -0.1169
vn -0.9914 -0.0000 -0.1305
vn -0.8877 -0.0000 0.4605
vn -0.2588 0.0000 -0.9659
vn -0.8883 -0.4441 0.1169
vn -0.9914 0.0000 0.1305
vn -0.5000 0.0000 -0.8660
vn -0.8278 -0.4441 0.3429
vn -0.9239 0.0000 0.3827
vn -0.7071 -0.0000 0.7071
vn -0.7071 0.0000 -0.7071
vn -0.7108 -0.4441 0.5454
vn -0.7934 0.0000 0.6088
vn -0.8660 0.0000 -0.5000
vn -0.5454 -0.4441 0.7108
vn -0.6088 0.0000 0.7934
vn -0.9659 0.0000 -0.2588
vn -0.3429 -0.4441 0.8278
vn -0.3827 0.0000 0.9239
vn 0.1240 -0.0000 0.9923
vn -1.0000 0.0000 0.0000
vn -0.1169 -0.4441 0.8883
vn -0.1305 0.0000 0.9914
vn 0.4472 -0.0000 0.8944
vn -0.9659 0.0000 0.2588
vn 0.1169 -0.4441 0.8883
vn 0.1305 0.0000 0.9914
vn -0.8660 0.0000 0.5000
vn 0.3429 -0.4441 0.8278
vn 0.3827 0.0000 0.9239
vn 0.5454 -0.4441 0.7108
vn 0.6088 0.0000 0.7934
vn -0.5000 0.0000 0.8660
vn 0.7108 -0.4441 0.5454
vn 0.7934 0.0000 0.6088
vn -0.2588 0.0000 0.9659
vn 0.8278 -0.4441 0.3429
vn 0.9239 0.0000 0.3827
vn 0.8944 -0.0000 -0.4472
vn 0.8883 -0.4441 0.1169
vn 0.9914 0.0000 0.1305
usemtl Material.001
s off
f 1/1/1 2/2/1 4/3/1 3/4/1
f 7/5/1 5/6/1 6/7/1
f 13/8/2 11/9/2 12/10/2
f 6/7/3 5/6/3 11/9/3 12/10/3
f 2/2/3 1/1/3 8/11/3 9/12/3
f 7/5/4 6/7/4 12/10/4 13/8/4
f 5/6/5 7/5/5 13/8/5 11/9/5
f 1/1/6 3/4/6 10/13/6 8/11/6
f 19/14/7 17/15/7 18/16/7
f 11/9/8 13/8/8 19/14/8 17/15/8
f 8/11/9 10/13/9 16/17/9 14/18/9
f 12/10/3 11/9/3 17/15/3 18/16/3
f 9/12/3 8/11/3 14/18/3 15/19/3
f 13/8/10 12/10/10 18/16/10 19/14/10
f 25/20/10 23/21/10 24/22/10
f 17/15/11 19/14/11 25/20/11 23/21/11
f 14/18/12 16/17/12 22/23/12 20/24/12
f 18/16/3 17/15/3 23/21/3 24/22/3
f 15/19/3 14/18/3 20/24/3 21/25/3
f 19/14/1 18/16/1 24/22/1 25/20/1
f 31/26/13 29/27/13 30/28/13
f 23/21/14 25/20/14 31/26/14 29/27/14
f 20/24/15 22/23/15 28/29/15 26/30/15
f 24/22/3 23/21/3 29/27/3 30/28/3
f 21/25/3 20/24/3 26/30/3 27/31/3
f 25/20/16 24/22/16 30/28/16 31/26/16
f 37/32/17 35/33/17 36/34/17
f 29/27/18 31/26/18 37/32/18 35/33/18
f 26/30/19 28/29/19 34/35/19 32/36/19
f 30/28/3 29/27/3 35/33/3 36/34/3
f 27/31/3 26/30/3 32/36/3 33/37/3
f 31/26/20 30/28/20 36/34/20 37/32/20
f 43/38/20 41/39/20 42/40/20
f 35/33/21 37/32/21 43/38/21 41/39/21
f 32/36/22 34/35/22 40/41/22 38/42/22
f 36/34/3 35/33/3 41/39/3 42/40/3
f 33/37/3 32/36/3 38/42/3 39/43/3
f 37/32/23 36/34/23 42/40/23 43/38/23
f 49/44/24 47/45/24 48/46/24
f 41/39/25 43/38/25 49/44/25 47/45/25
f 38/42/26 40/41/26 46/47/26 44/48/26
f 42/40/3 41/39/3 47/45/3 48/46/3
f 39/43/3 38/42/3 44/48/3 45/49/3
f 43/38/27 42/40/27 48/46/27 49/44/27
f 55/50/28 53/51/28 54/52/28
f 47/45/29 49/44/29 55/50/29 53/51/29
f 44/48/30 46/47/30 52/53/30 50/54/30
f 48/46/3 47/45/3 53/51/3 54/52/3
f 45/49/3 44/48/3 50/54/3 51/55/3
f 49/44/31 48/46/31 54/52/31 55/50/31
f 61/56/32 59/57/32 60/58/32
f 53/51/33 55/50/33 61/56/33 59/57/33
f 50/54/34 52/53/34 58/59/34 56/60/34
f 54/52/3 53/51/3 59/57/3 60/58/3
f 51/55/3 50/54/3 56/60/3 57/61/3
f 55/50/1 54/52/1 60/58/1 61/56/1
f 67/62/35 65/63/35 66/64/35
f 59/57/36 61/56/36 67/62/36 65/63/36
f 56/60/37 58/59/37 64/65/37 62/66/37
f 60/58/3 59/57/3 65/63/3 66/64/3
f 57/61/3 56/60/3 62/66/3 63/67/3
f 61/56/38 60/58/38 66/64/38 67/62/38
f 73/68/39 71/69/39 72/70/39
f 65/63/40 67/62/40 73/68/40 71/69/40
f 62/66/41 64/65/41 70/71/41 68/72/41
f 66/64/3 65/63/3 71/69/3 72/70/3
f 63/67/3 62/66/3 68/72/3 69/73/3
f 67/62/1 66/64/1 72/70/1 73/68/1
f 79/74/42 77/75/42 78/76/42
f 71/69/43 73/68/43 79/74/43 77/75/43
f 68/72/44 70/71/44 76/77/44 74/78/44
f 72/70/3 71/69/3 77/75/3 78/76/3
f 69/73/3 68/72/3 74/78/3 75/79/3
f 73/68/45 72/70/45 78/76/45 79/74/45
f 85/80/46 83/81/46 84/82/46
f 77/75/47 79/74/47 85/80/47 83/81/47
f 74/78/48 76/77/48 82/83/48 80/84/48
f 78/76/3 77/75/3 83/81/3 84/82/3
f 75/79/3 74/78/3 80/84/3 81/85/3
f 79/74/1 78/76/1 84/82/1 85/80/1
f 91/86/49 89/87/49 90/88/49
f 83/81/50 85/80/50 91/86/50 89/87/50
f 80/84/51 82/83/51 88/89/51 86/90/51
f 84/82/3 83/81/3 89/87/3 90/88/3
f 81/85/3 80/84/3 86/90/3 87/91/3
f 85/80/52 84/82/52 90/88/52 91/86/52
f 97/92/53 95/93/53 96/94/53
f 89/87/54 91/86/54 97/92/54 95/93/54
f 86/90/55 88/89/55 94/95/55 92/96/55
f 90/88/3 89/87/3 95/93/3 96/94/3
f 87/91/3 86/90/3 92/96/3 93/97/3
f 91/86/1 90/88/1 96/94/1 97/92/1
f 103/98/56 101/99/56 102/100/56
f 95/93/57 97/92/57 103/98/57 101/99/57
f 92/96/58 94/95/58 100/101/58 98/102/58
f 96/94/3 95/93/3 101/99/3 102/100/3
f 93/97/3 92/96/3 98/102/3 99/103/3
f 97/92/1 96/94/1 102/100/1 103/98/1
f 109/104/59 107/105/59 108/106/59
f 101/99/60 103/98/60 109/104/60 107/105/60
f 98/102/61 100/101/61 106/107/61 104/108/61
f 102/100/3 101/99/3 107/105/3 108/106/3
f 99/103/3 98/102/3 104/108/3 105/109/3
f 103/98/62 102/100/62 108/106/62 109/104/62
f 115/110/63 113/111/63 114/112/63
f 107/105/64 109/104/64 115/110/64 113/111/64
f 104/108/65 106/107/65 112/113/65 110/114/65
f 108/106/3 107/105/3 113/111/3 114/112/3
f 105/109/3 104/108/3 110/114/3 111/115/3
f 109/104/66 108/106/66 114/112/66 115/110/66
f 121/116/67 119/117/67 120/118/67
f 113/111/68 115/110/68 121/116/68 119/117/68
f 110/114/69 112/113/69 118/119/69 116/120/69
f 114/112/3 113/111/3 119/117/3 120/118/3
f 111/115/3 110/114/3 116/120/3 117/121/3
f 115/110/20 114/112/20 120/118/20 121/116/20
f 127/122/70 125/123/70 126/124/70
f 119/117/71 121/116/71 127/122/71 125/123/71
f 116/120/72 118/119/72 124/125/72 122/126/72
f 120/118/3 119/117/3 125/123/3 126/124/3
f 117/121/3 116/120/3 122/126/3 123/127/3
f 121/116/20 120/118/20 126/124/20 127/122/20
f 133/128/52 131/129/52 132/130/52
f 125/123/73 127/122/73 133/128/73 131/129/73
f 122/126/74 124/125/74 130/131/74 128/132/74
f 126/124/3 125/123/3 131/129/3 132/130/3
f 123/127/3 122/126/3 128/132/3 129/133/3
f 127/122/20 126/124/20 132/130/20 133/128/20
f 139/134/75 137/135/75 138/136/75
f 131/129/76 133/128/76 139/134/76 137/135/76
f 128/132/77 130/131/77 136/137/77 134/138/77
f 132/130/3 131/129/3 137/135/3 138/136/3
f 129/133/3 128/132/3 134/138/3 135/139/3
f 133/128/1 132/130/1 138/136/1 139/134/1
f 145/140/78 143/141/78 144/142/78
f 137/135/79 139/134/79 145/140/79 143/141/79
f 134/138/80 136/137/80 142/143/80 140/144/80
f 138/136/3 137/135/3 143/141/3 144/142/3
f 135/139/3 134/138/3 140/144/3 141/145/3
f 139/134/81 138/136/81 144/142/81 145/140/81
f 143/141/82 145/140/82 7/5/82 5/6/82
f 140/144/83 142/143/83 3/4/83 1/1/83
f 144/142/3 143/141/3 5/6/3 6/7/3
f 141/145/3 140/144/3 1/1/3 2/2/3
f 145/140/42 144/142/42 6/7/42 7/5/42
